<?xml version="1.0" encoding="utf-8"?>
<!-- Generator: Adobe Illustrator 16.0.0, SVG Export Plug-In . SVG Version: 6.00 Build 0)  -->
<!DOCTYPE svg PUBLIC "-//W3C//DTD SVG 1.1//EN" "http://www.w3.org/Graphics/SVG/1.1/DTD/svg11.dtd">
<svg version="1.1" id="Hor-Full-Color" xmlns="http://www.w3.org/2000/svg" xmlns:xlink="http://www.w3.org/1999/xlink" x="0px"
	 y="0px" width="512px" height="512px" viewBox="50 140 512 512" enable-background="new 50 140 512 512" xml:space="preserve">
<g>
	<path fill="#638C1C" d="M305.435,388.681L114,464.131l191.435,85.581L498,464.131L305.435,388.681z"/>
	<path fill="#E65300" d="M305.435,296.34L114,371.789l191.435,85.584L498,371.789L305.435,296.34z"/>
	<path fill="#007CBA" d="M305.435,204L114,279.449l191.435,85.584L498,279.449L305.435,204z"/>
	<path fill="#B2D235" d="M305.435,538.452L114,464.131v49.549L305.435,588L498,513.68v-49.549L305.435,538.452z"/>
	<path fill="#FF8300" d="M305.435,446.113L114,371.789v49.548l191.435,74.324L498,421.337v-49.548L305.435,446.113z"/>
	<path fill="#009ADE" d="M305.435,353.771L114,279.449v48.422l191.435,75.449L498,327.871v-48.422L305.435,353.771z"/>
</g>
</svg>
